HIERARCHY
ROOT Hips
{
	OFFSET 0.000000 97.167313 0.000000
	CHANNELS 6 Xposition Yposition Zposition Xrotation Yrotation Zrotation
	JOINT Spine
	{
		OFFSET 0.000000 13.784798 0.064400
		CHANNELS 3 Xrotation Yrotation Zrotation
		JOINT Spine1
		{
			OFFSET 0.000000 12.037903 0.404700
			CHANNELS 3 Xrotation Yrotation Zrotation
			JOINT Spine2
			{
				OFFSET 0.000000 17.795601 0.420200
				CHANNELS 3 Xrotation Yrotation Zrotation
				JOINT Neck
				{
					OFFSET 0.000000 39.131302 11.954600
					CHANNELS 3 Xrotation Yrotation Zrotation
					JOINT Head
					{
						OFFSET 0.000000 14.456192 15.627699
						CHANNELS 3 Xrotation Yrotation Zrotation
						JOINT HeadTop_End
						{
							OFFSET 0.000000 15.703506 7.603401
							CHANNELS 3 Xrotation Yrotation Zrotation
							End Site
							{
								OFFSET 0.000000 17.447403 0.000000
							}
						}
					}
				}
				JOINT LeftShoulder
				{
					OFFSET 17.399500 24.608795 1.168800
					CHANNELS 3 Xrotation Yrotation Zrotation
					JOINT LeftArm
					{
						OFFSET 18.980635 5.765305 1.818600
						CHANNELS 3 Xrotation Yrotation Zrotation
						JOINT LeftForeArm
						{
							OFFSET 49.290169 0.000000 0.000000
							CHANNELS 3 Xrotation Yrotation Zrotation
							JOINT LeftHand
							{
								OFFSET 31.562012 0.000000 0.000000
								CHANNELS 3 Xrotation Yrotation Zrotation
								JOINT LeftHandThumb1
								{
									OFFSET 6.133995 -4.388519 7.076070
									CHANNELS 3 Xrotation Yrotation Zrotation
									JOINT LeftHandThumb2
									{
										OFFSET 6.037666 -3.485840 3.485847
										CHANNELS 3 Xrotation Yrotation Zrotation
										JOINT LeftHandThumb3
										{
											OFFSET 6.496506 -3.750763 3.750761
											CHANNELS 3 Xrotation Yrotation Zrotation
											JOINT LeftHandThumb4
											{
												OFFSET 5.616882 -3.242905 3.242910
												CHANNELS 3 Xrotation Yrotation Zrotation
												End Site
												{
													OFFSET -1.254608 7.132141 0.375429
												}
											}
										}
									}
								}
								JOINT LeftHandPinky1
								{
									OFFSET 18.920792 -0.453171 -11.426712
									CHANNELS 3 Xrotation Yrotation Zrotation
									JOINT LeftHandPinky2
									{
										OFFSET 4.919586 0.000000 0.000000
										CHANNELS 3 Xrotation Yrotation Zrotation
										JOINT LeftHandPinky3
										{
											OFFSET 5.233047 0.000000 0.000000
											CHANNELS 3 Xrotation Yrotation Zrotation
											JOINT LeftHandPinky4
											{
												OFFSET 5.571716 0.000000 0.000000
												CHANNELS 3 Xrotation Yrotation Zrotation
												End Site
												{
													OFFSET -3.459808 4.342407 -0.466164
												}
											}
										}
									}
								}
								JOINT LeftHandRing1
								{
									OFFSET 22.726120 -0.094986 -6.500475
									CHANNELS 3 Xrotation Yrotation Zrotation
									JOINT LeftHandRing2
									{
										OFFSET 6.408615 0.000000 0.000000
										CHANNELS 3 Xrotation Yrotation Zrotation
										JOINT LeftHandRing3
										{
											OFFSET 6.150223 0.000000 0.000000
											CHANNELS 3 Xrotation Yrotation Zrotation
											JOINT LeftHandRing4
											{
												OFFSET 6.145386 0.000000 0.000000
												CHANNELS 3 Xrotation Yrotation Zrotation
												End Site
												{
													OFFSET -3.671402 4.923981 -0.202372
												}
											}
										}
									}
								}
								JOINT LeftHandMiddle1
								{
									OFFSET 23.373947 0.000000 0.000001
									CHANNELS 3 Xrotation Yrotation Zrotation
									JOINT LeftHandMiddle2
									{
										OFFSET 6.996567 0.000000 0.000000
										CHANNELS 3 Xrotation Yrotation Zrotation
										JOINT LeftHandMiddle3
										{
											OFFSET 7.015945 0.000000 0.000000
											CHANNELS 3 Xrotation Yrotation Zrotation
											JOINT LeftHandMiddle4
											{
												OFFSET 7.721573 0.000000 0.000000
												CHANNELS 3 Xrotation Yrotation Zrotation
												End Site
												{
													OFFSET -4.651108 6.158463 0.251582
												}
											}
										}
									}
								}
								JOINT LeftHandIndex1
								{
									OFFSET 21.310577 -0.490082 6.209344
									CHANNELS 3 Xrotation Yrotation Zrotation
									JOINT LeftHandIndex2
									{
										OFFSET 7.536453 0.000000 0.000000
										CHANNELS 3 Xrotation Yrotation Zrotation
										JOINT LeftHandIndex3
										{
											OFFSET 7.512344 0.000000 0.000000
											CHANNELS 3 Xrotation Yrotation Zrotation
											JOINT LeftHandIndex4
											{
												OFFSET 10.212402 0.000000 0.000001
												CHANNELS 3 Xrotation Yrotation Zrotation
												End Site
												{
													OFFSET -5.180801 8.690506 1.388433
												}
											}
										}
									}
								}
							}
						}
					}
				}
				JOINT RightShoulder
				{
					OFFSET -17.399500 24.608795 1.168800
					CHANNELS 3 Xrotation Yrotation Zrotation
					JOINT RightArm
					{
						OFFSET -18.980635 5.765305 1.818600
						CHANNELS 3 Xrotation Yrotation Zrotation
						JOINT RightForeArm
						{
							OFFSET -49.290169 0.000000 0.000000
							CHANNELS 3 Xrotation Yrotation Zrotation
							JOINT RightHand
							{
								OFFSET -31.562012 0.000000 0.000000
								CHANNELS 3 Xrotation Yrotation Zrotation
								JOINT RightHandThumb1
								{
									OFFSET -6.133995 -4.388519 7.076070
									CHANNELS 3 Xrotation Yrotation Zrotation
									JOINT RightHandThumb2
									{
										OFFSET -6.037666 -3.485840 3.485847
										CHANNELS 3 Xrotation Yrotation Zrotation
										JOINT RightHandThumb3
										{
											OFFSET -6.496506 -3.750763 3.750761
											CHANNELS 3 Xrotation Yrotation Zrotation
											JOINT RightHandThumb4
											{
												OFFSET -5.616882 -3.242905 3.242910
												CHANNELS 3 Xrotation Yrotation Zrotation
												End Site
												{
													OFFSET 1.254608 7.132141 0.375429
												}
											}
										}
									}
								}
								JOINT RightHandIndex1
								{
									OFFSET -21.310577 -0.490082 6.209344
									CHANNELS 3 Xrotation Yrotation Zrotation
									JOINT RightHandIndex2
									{
										OFFSET -7.536453 0.000000 0.000000
										CHANNELS 3 Xrotation Yrotation Zrotation
										JOINT RightHandIndex3
										{
											OFFSET -7.512344 0.000000 0.000000
											CHANNELS 3 Xrotation Yrotation Zrotation
											JOINT RightHandIndex4
											{
												OFFSET -10.212402 0.000000 0.000001
												CHANNELS 3 Xrotation Yrotation Zrotation
												End Site
												{
													OFFSET 5.180801 8.690506 1.388433
												}
											}
										}
									}
								}
								JOINT RightHandMiddle1
								{
									OFFSET -23.373947 0.000000 0.000001
									CHANNELS 3 Xrotation Yrotation Zrotation
									JOINT RightHandMiddle2
									{
										OFFSET -6.996567 0.000000 0.000000
										CHANNELS 3 Xrotation Yrotation Zrotation
										JOINT RightHandMiddle3
										{
											OFFSET -7.015945 0.000000 0.000000
											CHANNELS 3 Xrotation Yrotation Zrotation
											JOINT RightHandMiddle4
											{
												OFFSET -7.721573 0.000000 0.000000
												CHANNELS 3 Xrotation Yrotation Zrotation
												End Site
												{
													OFFSET 4.651108 6.158463 0.251582
												}
											}
										}
									}
								}
								JOINT RightHandRing1
								{
									OFFSET -22.726120 -0.094986 -6.500475
									CHANNELS 3 Xrotation Yrotation Zrotation
									JOINT RightHandRing2
									{
										OFFSET -6.408615 0.000000 0.000000
										CHANNELS 3 Xrotation Yrotation Zrotation
										JOINT RightHandRing3
										{
											OFFSET -6.150223 0.000000 0.000000
											CHANNELS 3 Xrotation Yrotation Zrotation
											JOINT RightHandRing4
											{
												OFFSET -6.145386 0.000000 0.000000
												CHANNELS 3 Xrotation Yrotation Zrotation
												End Site
												{
													OFFSET 3.671402 4.923981 -0.202372
												}
											}
										}
									}
								}
								JOINT RightHandPinky1
								{
									OFFSET -18.920792 -0.453171 -11.426712
									CHANNELS 3 Xrotation Yrotation Zrotation
									JOINT RightHandPinky2
									{
										OFFSET -4.919586 0.000000 0.000000
										CHANNELS 3 Xrotation Yrotation Zrotation
										JOINT RightHandPinky3
										{
											OFFSET -5.233047 0.000000 0.000000
											CHANNELS 3 Xrotation Yrotation Zrotation
											JOINT RightHandPinky4
											{
												OFFSET -5.571716 0.000000 0.000000
												CHANNELS 3 Xrotation Yrotation Zrotation
												End Site
												{
													OFFSET 3.459808 4.342407 -0.466164
												}
											}
										}
									}
								}
							}
						}
					}
				}
			}
		}
	}
	JOINT LeftUpLeg
	{
		OFFSET 19.899099 -7.885101 -3.429500
		CHANNELS 3 Xrotation Yrotation Zrotation
		JOINT LeftLeg
		{
			OFFSET 1.745560 -36.997807 10.304700
			CHANNELS 3 Xrotation Yrotation Zrotation
			JOINT LeftFoot
			{
				OFFSET -1.745558 -29.803308 -13.615400
				CHANNELS 3 Xrotation Yrotation Zrotation
				JOINT LeftToeBase
				{
					OFFSET 1.181900 -18.539904 15.226099
					CHANNELS 3 Xrotation Yrotation Zrotation
					JOINT LeftToe_End
					{
						OFFSET -0.863701 1.402801 16.534700
						CHANNELS 3 Xrotation Yrotation Zrotation
						End Site
						{
							OFFSET 0.000000 16.616566 0.000000
						}
					}
				}
			}
		}
	}
	JOINT RightUpLeg
	{
		OFFSET -19.899099 -7.885101 -3.429500
		CHANNELS 3 Xrotation Yrotation Zrotation
		JOINT RightLeg
		{
			OFFSET -1.745560 -36.997807 10.304700
			CHANNELS 3 Xrotation Yrotation Zrotation
			JOINT RightFoot
			{
				OFFSET 1.745558 -29.803308 -13.615400
				CHANNELS 3 Xrotation Yrotation Zrotation
				JOINT RightToeBase
				{
					OFFSET -1.181900 -18.539904 15.226099
					CHANNELS 3 Xrotation Yrotation Zrotation
					JOINT RightToe_End
					{
						OFFSET 0.863701 1.402801 16.534700
						CHANNELS 3 Xrotation Yrotation Zrotation
						End Site
						{
							OFFSET 0.000000 16.616566 0.000000
						}
					}
				}
			}
		}
	}
}
MOTION
Frames: 5
Frame Time: 0.033333
0.061402 77.206215 -0.225279 20.203030 -10.494216 5.110178 28.318193 5.778753 -5.131609 2.094688 1.826382 -0.652189 2.078449 1.862280 -0.743079 -10.552114 1.482588 -0.774705 -26.263418 -3.238836 -5.520687 -0.000001 0.000000 -0.000000 4.698803 9.230973 -16.197223 -6.899326 -15.126147 -58.978964 -20.359990 -53.630570 -9.105398 -1.310209 -26.246020 -6.681043 -2.540170 0.099822 12.393449 16.574467 12.235478 -5.596455 51.607577 -15.497114 18.362736 -0.000001 0.000000 0.000005 -5.907838 -5.340955 -53.176270 -0.044841 -0.065945 -73.346697 -0.008417 -0.032063 -29.459453 -0.000000 0.000001 -0.000000 -0.586397 0.231640 -62.614584 -0.855568 -0.960355 -44.526355 -0.053161 1.222626 -15.679959 -0.000003 -0.000001 0.000003 -0.650919 -2.111465 -38.946142 -0.044039 -4.883213 -50.793890 0.564324 1.533824 -18.517852 -0.000000 -0.000001 0.000004 -4.292607 -6.224063 -38.907681 0.002779 -4.398874 -42.159681 0.228089 1.933370 -6.302504 0.000000 0.000005 0.000002 -0.115434 12.230488 -3.663394 -29.978868 2.260710 57.582593 -59.497491 77.081608 55.867686 -1.327147 14.725917 10.431493 24.918350 -21.323357 30.343037 9.041926 8.262102 -18.001800 -16.109843 -19.128870 -12.401662 -0.000000 0.000002 -0.000000 -0.063530 -3.017222 61.424410 0.006483 4.395131 66.609186 1.919193 -0.429142 59.456681 -0.000001 -0.000001 0.000001 -1.221746 -0.129479 68.273690 -0.078670 4.899223 84.501769 0.902428 -1.339837 32.715110 -0.000000 0.000000 -0.000004 0.882097 -4.623050 79.192669 -0.721588 1.141064 73.254353 -0.065381 -1.198586 39.144391 0.000001 0.000000 -0.000005 -3.962384 0.099780 86.766789 -0.027282 0.052912 54.416121 -0.006500 0.028382 25.829812 0.000001 -0.000002 0.000005 -64.583906 13.084850 2.786891 105.676994 3.599382 3.934624 -10.778404 -3.435991 18.828241 0.778573 5.485856 -7.033536 -0.000000 -0.000001 0.000000 -17.632854 1.097709 -7.134224 46.479697 8.518184 -4.429060 -41.766316 -1.168656 2.553727 -8.810070 -4.459647 -0.308125 0.000000 0.000000 0.000000 
0.854460 79.556488 18.776794 11.906548 -9.932762 6.387185 26.956330 10.761774 -7.241850 1.966056 3.066548 -0.827183 1.952274 3.113812 -0.981479 -5.510884 -0.639284 -1.630050 -21.438707 -4.148459 -10.002848 0.000001 0.000000 0.000000 1.746055 3.173832 -11.805881 -4.371499 -2.085286 -41.052456 -43.534594 -63.851996 -33.986693 -0.505840 -19.851627 -7.978371 -2.540168 0.099818 12.393450 16.574467 12.235480 -5.596464 51.607574 -15.497117 18.362738 0.000000 -0.000001 0.000001 -5.907837 -5.340959 -53.176270 -0.044835 -0.065945 -73.346690 -0.008417 -0.032061 -29.459453 -0.000001 -0.000001 -0.000002 -0.586393 0.231636 -62.614591 -0.855574 -0.960357 -44.526355 -0.053157 1.222625 -15.679966 -0.000000 0.000000 0.000002 -0.650915 -2.111470 -38.946145 -0.044040 -4.883210 -50.793900 0.564327 1.533818 -18.517848 0.000004 -0.000003 0.000004 -4.292603 -6.224069 -38.907681 0.002783 -4.398869 -42.159677 0.228085 1.933372 -6.302505 -0.000001 0.000001 -0.000001 0.966630 15.037684 -4.544273 -17.167913 2.885989 34.303730 -72.753707 65.249289 65.453218 1.322135 3.396869 -4.735371 24.918362 -21.323355 30.343037 9.041928 8.262102 -18.001804 -16.109845 -19.128874 -12.401657 0.000004 -0.000002 0.000004 -0.063529 -3.017221 61.424410 0.006478 4.395132 66.609193 1.919196 -0.429136 59.456681 0.000000 -0.000001 -0.000002 -1.221742 -0.129479 68.273697 -0.078667 4.899228 84.501769 0.902432 -1.339839 32.715110 -0.000000 0.000002 -0.000004 0.882101 -4.623048 79.192669 -0.721589 1.141063 73.254359 -0.065380 -1.198584 39.144388 0.000001 0.000002 -0.000005 -3.962382 0.099780 86.766789 -0.027282 0.052912 54.416114 -0.006501 0.028380 25.829817 -0.000000 0.000001 0.000006 -77.732839 0.072583 3.176895 95.954739 1.714944 -1.038890 40.183010 -5.679304 -0.489172 4.829948 0.649617 0.277716 0.000002 -0.000000 0.000001 1.270640 -0.463283 -14.460520 40.334781 9.544487 -2.212697 -18.622659 -1.971838 5.803245 -37.995659 -6.232989 -0.066434 0.000000 0.000000 0.000000 
-0.114765 87.772537 36.518490 8.633026 -8.232705 9.693383 25.774253 12.157201 -10.609769 1.852909 3.453387 -1.213357 1.834955 3.515512 -1.400196 -0.935594 -2.465296 -1.918212 -17.357077 -6.168052 -10.925650 0.000000 0.000000 0.000000 0.233894 -2.725265 -7.669548 -4.980018 10.640574 -23.754037 -79.005891 -65.991812 -72.025362 -0.309577 -13.257114 -8.780184 -2.540169 0.099824 12.393453 16.574467 12.235476 -5.596456 51.607577 -15.497114 18.362738 0.000002 -0.000001 0.000000 -5.907839 -5.340955 -53.176270 -0.044841 -0.065943 -73.346697 -0.008422 -0.032054 -29.459456 -0.000001 -0.000000 -0.000004 -0.586396 0.231642 -62.614584 -0.855574 -0.960359 -44.526352 -0.053159 1.222628 -15.679961 0.000000 0.000003 0.000000 -0.650917 -2.111468 -38.946138 -0.044043 -4.883213 -50.793890 0.564330 1.533825 -18.517850 0.000001 -0.000003 0.000004 -4.292609 -6.224060 -38.907677 0.002781 -4.398868 -42.159684 0.228087 1.933373 -6.302504 -0.000002 0.000003 -0.000001 1.794937 14.937064 -4.189848 -7.881527 0.435322 21.872861 -66.948934 56.506042 58.061703 0.063583 0.101301 -6.713562 24.918362 -21.323354 30.343033 9.041926 8.262099 -18.001793 -16.109843 -19.128875 -12.401658 0.000000 -0.000002 0.000002 -0.063524 -3.017223 61.424410 0.006480 4.395138 66.609193 1.919197 -0.429134 59.456674 0.000001 -0.000001 -0.000001 -1.221739 -0.129482 68.273690 -0.078669 4.899229 84.501775 0.902424 -1.339837 32.715110 -0.000001 0.000002 -0.000004 0.882104 -4.623049 79.192669 -0.721589 1.141066 73.254353 -0.065378 -1.198587 39.144391 -0.000002 0.000001 -0.000005 -3.962377 0.099781 86.766796 -0.027283 0.052913 54.416114 -0.006499 0.028380 25.829810 0.000003 -0.000002 0.000002 -94.310576 1.514948 -3.160186 87.677465 -8.070312 -1.566282 53.061674 -3.170835 -10.405021 7.556953 0.625089 0.628550 0.000001 0.000000 -0.000001 5.190522 -10.922647 -19.054408 24.773257 10.374303 0.399796 30.485129 2.576164 0.008522 -60.324825 -4.221994 4.245414 0.000002 -0.000001 0.000000 
-1.482687 97.825058 50.982433 7.460211 -7.688205 12.546883 25.930395 11.288984 -13.910231 1.795735 3.248394 -1.278873 1.797295 3.314259 -1.475826 3.378469 -3.272345 -2.383838 -15.719643 -8.192032 -8.879926 -0.000001 -0.000000 -0.000000 0.406715 -6.163260 -0.785453 -10.447338 18.048367 -9.881425 -100.376644 -61.798486 -96.932815 -0.634296 -8.447230 -9.178583 -2.540170 0.099814 12.393448 16.574467 12.235477 -5.596457 51.607581 -15.497119 18.362743 -0.000002 -0.000000 -0.000001 -5.907835 -5.340962 -53.176270 -0.044842 -0.065946 -73.346697 -0.008417 -0.032058 -29.459456 -0.000002 0.000001 -0.000004 -0.586395 0.231640 -62.614584 -0.855571 -0.960352 -44.526348 -0.053161 1.222624 -15.679963 0.000000 0.000000 0.000003 -0.650914 -2.111469 -38.946138 -0.044039 -4.883211 -50.793894 0.564332 1.533823 -18.517852 0.000001 -0.000003 0.000008 -4.292602 -6.224062 -38.907677 0.002778 -4.398872 -42.159681 0.228086 1.933372 -6.302504 -0.000001 -0.000004 -0.000001 2.102177 14.133266 -4.923237 -1.691105 -0.228285 16.493944 -62.425709 51.288266 55.168394 -0.089727 0.058535 -6.357590 24.918349 -21.323352 30.343037 9.041927 8.262098 -18.001804 -16.109845 -19.128874 -12.401662 -0.000003 -0.000002 -0.000003 -0.063528 -3.017221 61.424403 0.006483 4.395137 66.609193 1.919196 -0.429134 59.456681 0.000000 0.000000 0.000001 -1.221744 -0.129479 68.273690 -0.078668 4.899226 84.501769 0.902429 -1.339841 32.715110 0.000000 0.000003 -0.000008 0.882102 -4.623047 79.192669 -0.721587 1.141068 73.254353 -0.065380 -1.198584 39.144388 0.000001 -0.000000 -0.000002 -3.962382 0.099783 86.766789 -0.027284 0.052907 54.416114 -0.006498 0.028378 25.829810 0.000003 0.000002 -0.000003 -113.194854 1.197930 0.327385 75.290056 -13.680241 -2.388045 47.191717 -2.296161 -12.922516 8.755415 2.649821 -2.091328 -0.000000 -0.000000 -0.000000 -1.107125 -31.985311 -24.165179 21.106970 22.906709 0.213236 38.782764 3.792340 -4.237129 10.391026 10.270903 3.656939 -0.000001 0.000000 0.000002 
-2.321156 105.955902 62.921188 6.498981 -8.260526 13.320442 26.285548 9.379212 -15.303170 1.772609 2.775310 -1.220186 1.803658 2.842020 -1.417326 7.710625 -3.381139 -2.970161 -15.980139 -9.260755 -6.023204 -0.000003 0.000000 -0.000000 1.396463 -9.353606 8.301461 -18.923082 21.728346 1.189150 -110.732106 -56.941204 -111.624463 -1.235696 -5.539535 -9.135310 -2.540169 0.099822 12.393451 16.574465 12.235481 -5.596457 51.607577 -15.497114 18.362740 -0.000001 -0.000000 0.000001 -5.907840 -5.340955 -53.176270 -0.044838 -0.065943 -73.346697 -0.008417 -0.032056 -29.459449 0.000003 -0.000000 -0.000001 -0.586395 0.231641 -62.614584 -0.855572 -0.960356 -44.526355 -0.053161 1.222625 -15.679961 -0.000002 0.000002 0.000003 -0.650917 -2.111465 -38.946145 -0.044038 -4.883213 -50.793890 0.564327 1.533821 -18.517843 0.000002 -0.000002 0.000004 -4.292603 -6.224060 -38.907677 0.002780 -4.398871 -42.159677 0.228085 1.933370 -6.302501 -0.000001 -0.000000 0.000001 2.181554 13.269597 -6.170389 2.262608 0.582137 13.644222 -57.400363 47.087867 52.920941 0.210160 1.472226 -4.977458 24.918350 -21.323354 30.343033 9.041927 8.262104 -18.001804 -16.109845 -19.128875 -12.401657 0.000001 0.000000 0.000002 -0.063533 -3.017229 61.424410 0.006485 4.395135 66.609193 1.919198 -0.429135 59.456674 -0.000002 -0.000001 -0.000001 -1.221744 -0.129484 68.273690 -0.078669 4.899226 84.501775 0.902429 -1.339839 32.715110 -0.000006 0.000002 -0.000004 0.882097 -4.623049 79.192669 -0.721585 1.141063 73.254353 -0.065381 -1.198586 39.144388 0.000001 -0.000001 -0.000003 -3.962382 0.099780 86.766789 -0.027287 0.052913 54.416121 -0.006500 0.028380 25.829808 0.000000 0.000002 0.000004 -119.912031 4.317985 5.056261 65.648288 -11.327581 1.008723 60.823244 -4.652916 -9.419279 12.366503 2.199604 -0.724986 -0.000000 -0.000000 0.000000 -11.543351 -26.042603 -25.954625 41.254469 27.999553 1.477025 26.650138 6.693275 9.702071 7.616385 3.258095 2.526092 -0.000001 0.000000 -0.000001 
